<svg xmlns="http://www.w3.org/2000/svg" version="1.1" xmlns:xlink="http://www.w3.org/1999/xlink" xmlns:svgjs="http://svgjs.dev/svgjs" width="128" height="128" viewBox="0 0 128 128"><g transform="matrix(0.8046875,0,0,0.8046875,12.221578124999994,15.584741289420151)"><svg viewBox="0 0 96 90" data-background-color="#ffffff" preserveAspectRatio="xMidYMid meet" height="120" width="128" xmlns="http://www.w3.org/2000/svg" xmlns:xlink="http://www.w3.org/1999/xlink"><g id="tight-bounds" transform="matrix(1,0,0,1,0.25950000000000273,0.12490132248218799)"><svg viewBox="0 0 95.481 89.75019735503561" height="89.75019735503561" width="95.481"><g><svg viewBox="0 0 95.481 89.75019735503561" height="89.75019735503561" width="95.481"><g><svg viewBox="0 0 95.481 89.75019735503561" height="89.75019735503561" width="95.481"><g id="textblocktransform"><svg viewBox="0 0 95.481 89.75019735503561" height="89.75019735503561" width="95.481" id="textblock"><g><svg viewBox="0 0 95.481 89.75019735503561" height="89.75019735503561" width="95.481"><g><svg viewBox="0 0 95.481 89.75019735503561" height="89.75019735503561" width="95.481"><g><svg xmlns:x="http://ns.adobe.com/Extensibility/1.0/" xmlns:i="http://ns.adobe.com/AdobeIllustrator/10.0/" xmlns:graph="http://ns.adobe.com/Graphs/1.0/" xmlns="http://www.w3.org/2000/svg" xmlns:xlink="http://www.w3.org/1999/xlink" version="1.1" x="0" y="0" viewBox="0.95 3.8 98.3 92.4" enable-background="new 0 0 100 100" xml:space="preserve" height="89.75019735503561" width="95.481" class="icon-icon-0" data-fill-palette-color="accent" id="icon-0"><path d="M83.4 20.9V14.1C83.4 11.2 81 8.8 78.1 8.8H21.9C19 8.8 16.6 11.2 16.6 14.1V60.6L23 54.2C24 53.2 25.6 53.2 26.5 54.2 27.5 55.2 27.5 56.8 26.5 57.7L15.9 68.3C15.4 68.8 14.8 69 14.1 69S12.8 68.7 12.3 68.3L1.7 57.7C0.7 56.7 0.7 55.1 1.7 54.2 2.7 53.2 4.3 53.2 5.2 54.2L11.6 60.6V14.1C11.6 8.4 16.2 3.8 21.9 3.8H78.2C83.9 3.8 88.5 8.4 88.5 14.1V20.9C88.5 22.3 87.4 23.4 86 23.4S83.4 22.3 83.4 20.9M87.7 31.7C86.7 30.7 85.1 30.7 84.2 31.7L73.5 42.3C72.5 43.3 72.5 44.9 73.5 45.8 74.5 46.8 76.1 46.8 77 45.8L83.4 39.4V85.9C83.4 88.8 81 91.2 78.1 91.2H21.9C19 91.2 16.6 88.8 16.6 85.9V79.1C16.6 77.7 15.5 76.6 14.1 76.6S11.6 77.7 11.6 79.1V85.9C11.6 91.6 16.2 96.2 21.9 96.2H78.2C83.9 96.2 88.5 91.6 88.5 85.9V39.5L94.9 45.9C95.4 46.4 96 46.6 96.7 46.6S98 46.4 98.5 45.9C99.5 44.9 99.5 43.3 98.5 42.4z" fill="#10b981" data-fill-palette-color="accent"></path></svg><g></g></g></svg></g></svg></g></svg></g></svg></g></svg></g><defs></defs></svg><rect width="95.481" height="89.75019735503561" fill="none" stroke="none" visibility="hidden"></rect></g></svg></g></svg>